<?xml version="1.0" encoding="UTF-8"?>
<svg width="245px" height="177px" viewBox="0 0 245 177" version="1.1" xmlns="http://www.w3.org/2000/svg" xmlns:xlink="http://www.w3.org/1999/xlink">
    <title>Group</title>
    <g id="Page-1" stroke="none" stroke-width="1" fill="none" fill-rule="evenodd">
        <g id="Nexify_logoguide" transform="translate(-299.000000, -204.000000)">
            <g id="Group" transform="translate(299.260700, 204.474300)">
                <polygon id="Fill-1" fill="#4BC2BE" points="128.4288 2.84217094e-14 243.9768 66.713 128.4288 133.435"></polygon>
                <path d="M0,175.8975 L0,151.6905 L3.63,151.6905 L11.761,163.9415 C13.618,166.7705 15.136,169.3295 16.307,171.8015 L16.419,171.7675 C16.116,168.5315 16.038,165.5895 16.038,161.8155 L16.038,151.6905 L19.144,151.6905 L19.144,175.8975 L15.817,175.8975 L7.717,163.6115 C5.943,160.9215 4.234,158.1545 2.989,155.5345 L2.876,155.5685 C3.063,158.6235 3.102,161.5295 3.102,165.5555 L3.102,175.8975 L0,175.8975 Z" id="Fill-2" fill="#6D6E71"></path>
                <polygon id="Fill-4" fill="#6D6E71" points="62.5616 164.5489 52.6836 164.5489 52.6836 173.2779 63.7326 173.2779 63.7326 175.8979 49.3516 175.8979 49.3516 151.6909 63.1646 151.6909 63.1646 154.3109 52.6836 154.3109 52.6836 161.9629 62.5616 161.9629"></polygon>
                <path d="M106.2818,175.8975 L102.9898,170.5435 C101.6658,168.4965 100.8718,167.1685 100.0738,165.7715 L99.9998,165.7715 C99.2838,167.1685 98.5248,168.4615 97.2368,170.5865 L94.1778,175.8975 L90.3868,175.8975 L98.1818,163.6555 L90.6898,151.6905 L94.5168,151.6905 L97.8828,157.3645 C98.8288,158.9435 99.5448,160.1675 100.2258,161.4595 L100.3388,161.4595 C101.0628,160.0195 101.7048,158.9095 102.6468,157.3645 L106.0948,151.6905 L109.9128,151.6905 L102.1568,163.4635 L110.1038,175.8975 L106.2818,175.8975 Z" id="Fill-6" fill="#6D6E71"></path>
                <polygon id="Fill-8" fill="#6D6E71" points="140.6533 175.8977 143.9803 175.8977 143.9803 151.6907 140.6533 151.6907"></polygon>
                <polygon id="Fill-10" fill="#6D6E71" points="179.1553 151.6905 192.8843 151.6905 192.8843 154.3105 182.4823 154.3105 182.4823 162.3535 192.0913 162.3535 192.0913 164.9485 182.4823 164.9485 182.4823 175.8975 179.1553 175.8975"></polygon>
                <path d="M226.2159,175.8975 L226.2159,165.6245 L218.1159,151.6905 L221.9039,151.6905 L225.4949,158.3715 C226.4419,160.2025 227.2389,161.6765 228.0329,163.3605 L228.1079,163.3605 C228.7879,161.7805 229.6999,160.2025 230.6809,158.3715 L234.3459,151.6905 L238.0549,151.6905 L229.5439,165.5895 L229.5439,175.8975 L226.2159,175.8975 Z" id="Fill-11" fill="#6D6E71"></path>
                <polygon id="Fill-12" fill="#6D6E71" points="115.5259 113.8789 115.5259 0.6939 101.0679 0.6939 101.0679 99.6999 0.0949 0.6939 0.0469 0.6419 0.0259 134.1289 14.4849 134.1289 14.4849 35.0619 115.5259 134.1289"></polygon>
            </g>
        </g>
    </g>
</svg>
